<svg xmlns="http://www.w3.org/2000/svg" viewBox="0 0 192 192" width="192" height="192" preserveAspectRatio="xMidYMid slice" style="width: 100%; height: 100%; transform: translate3d(0px, 0px, 0px);"><defs><clipPath id="__lottie_element_10"><rect width="192" height="192" x="0" y="0"/></clipPath></defs><g clip-path="url(#__lottie_element_10)"><g transform="matrix(4,0,0,4,32.30500030517578,150)" opacity="1" style="display: block;"><g opacity="1" transform="matrix(1,0,0,1,0,0)"><path fill="rgb(0,0,0)" fill-opacity="1" d=" M5.546999931335449,-0.4050000011920929 C5.546999931335449,-0.4050000011920929 3.013000011444092,1.5169999599456787 3.013000011444092,1.5169999599456787 C3.013000011444092,1.5169999599456787 3.871000051498413,4.263999938964844 3.871000051498413,4.263999938964844 C3.99399995803833,4.6579999923706055 3.8489999771118164,5.086999893188477 3.51200008392334,5.324999809265137 C3.3469998836517334,5.441999912261963 3.1549999713897705,5.5 2.9619998931884766,5.5 C2.760999917984009,5.5 2.559999942779541,5.435999870300293 2.3910000324249268,5.309999942779541 C2.3910000324249268,5.309999942779541 0,3.5199999809265137 0,3.5199999809265137 C0,3.5199999809265137 -2.3910000324249268,5.309999942779541 -2.3910000324249268,5.309999942779541 C-2.7209999561309814,5.558000087738037 -3.1740000247955322,5.564000129699707 -3.510999917984009,5.324999809265137 C-3.8480000495910645,5.086999893188477 -3.993000030517578,4.6579999923706055 -3.869999885559082,4.263999938964844 C-3.869999885559082,4.263999938964844 -3.01200008392334,1.5169999599456787 -3.01200008392334,1.5169999599456787 C-3.01200008392334,1.5169999599456787 -5.546000003814697,-0.4050000011920929 -5.546000003814697,-0.4050000011920929 C-5.872000217437744,-0.6520000100135803 -6.002999782562256,-1.0800000429153442 -5.873000144958496,-1.4670000076293945 C-5.742000102996826,-1.8539999723434448 -5.379000186920166,-2.115000009536743 -4.9710001945495605,-2.115000009536743 C-4.9710001945495605,-2.115000009536743 -1.843000054359436,-2.115000009536743 -1.843000054359436,-2.115000009536743 C-1.843000054359436,-2.115000009536743 -0.9010000228881836,-4.85699987411499 -0.9010000228881836,-4.85699987411499 C-0.7670000195503235,-5.242000102996826 -0.4059999883174896,-5.5 0.0010000000474974513,-5.5 C0.40799999237060547,-5.5 0.7689999938011169,-5.242000102996826 0.9010000228881836,-4.857999801635742 C0.9010000228881836,-4.857999801635742 1.843000054359436,-2.115999937057495 1.843000054359436,-2.115999937057495 C1.843000054359436,-2.115999937057495 4.9710001945495605,-2.115999937057495 4.9710001945495605,-2.115999937057495 C5.380000114440918,-2.115999937057495 5.743000030517578,-1.8550000190734863 5.873000144958496,-1.468000054359436 C6.004000186920166,-1.0800000429153442 5.873000144958496,-0.6520000100135803 5.546999931335449,-0.4050000011920929z"/></g></g><g transform="matrix(4,0,0,4,32.305999755859375,96.00199890136719)" opacity="1" style="display: block;"><g opacity="1" transform="matrix(1,0,0,1,0,0)"><path fill="rgb(0,0,0)" fill-opacity="1" d=" M5.546000003814697,-0.4059999883174896 C5.546000003814697,-0.4059999883174896 3.01200008392334,1.5160000324249268 3.01200008392334,1.5160000324249268 C3.01200008392334,1.5160000324249268 3.869999885559082,4.263000011444092 3.869999885559082,4.263000011444092 C3.993000030517578,4.6570000648498535 3.8480000495910645,5.085999965667725 3.510999917984009,5.323999881744385 C3.3459999561309814,5.440999984741211 3.1540000438690186,5.499000072479248 2.9619998931884766,5.499000072479248 C2.760999917984009,5.499000072479248 2.559999942779541,5.434999942779541 2.3910000324249268,5.309000015258789 C2.3910000324249268,5.309000015258789 0,3.5190000534057617 0,3.5190000534057617 C0,3.5190000534057617 -2.3910000324249268,5.309000015258789 -2.3910000324249268,5.309000015258789 C-2.7209999561309814,5.557000160217285 -3.1740000247955322,5.563000202178955 -3.510999917984009,5.323999881744385 C-3.8480000495910645,5.085999965667725 -3.993000030517578,4.6570000648498535 -3.869999885559082,4.263000011444092 C-3.869999885559082,4.263000011444092 -3.01200008392334,1.5160000324249268 -3.01200008392334,1.5160000324249268 C-3.01200008392334,1.5160000324249268 -5.546000003814697,-0.4059999883174896 -5.546000003814697,-0.4059999883174896 C-5.872000217437744,-0.652999997138977 -6.002999782562256,-1.0809999704360962 -5.873000144958496,-1.468000054359436 C-5.742000102996826,-1.8550000190734863 -5.379000186920166,-2.115999937057495 -4.9710001945495605,-2.115999937057495 C-4.9710001945495605,-2.115999937057495 -1.843000054359436,-2.115999937057495 -1.843000054359436,-2.115999937057495 C-1.843000054359436,-2.115999937057495 -0.9010000228881836,-4.857999801635742 -0.9010000228881836,-4.857999801635742 C-0.7689999938011169,-5.242000102996826 -0.40700000524520874,-5.5 -0.0010000000474974513,-5.5 C0.4059999883174896,-5.5 0.7670000195503235,-5.242000102996826 0.8989999890327454,-4.857999801635742 C0.8989999890327454,-4.857999801635742 1.840999960899353,-2.115999937057495 1.840999960899353,-2.115999937057495 C1.840999960899353,-2.115999937057495 4.968999862670898,-2.115999937057495 4.968999862670898,-2.115999937057495 C5.377999782562256,-2.115999937057495 5.741000175476074,-1.8550000190734863 5.870999813079834,-1.468000054359436 C6.002999782562256,-1.0809999704360962 5.872000217437744,-0.652999997138977 5.546000003814697,-0.4059999883174896z"/></g></g><g transform="matrix(4,0,0,4,32.30500030517578,42)" opacity="1" style="display: block;"><g opacity="1" transform="matrix(1,0,0,1,0,0)"><path fill="rgb(0,0,0)" fill-opacity="1" d=" M5.546999931335449,-0.4050000011920929 C5.546999931335449,-0.4050000011920929 3.013000011444092,1.5169999599456787 3.013000011444092,1.5169999599456787 C3.013000011444092,1.5169999599456787 3.871000051498413,4.263999938964844 3.871000051498413,4.263999938964844 C3.99399995803833,4.6579999923706055 3.8489999771118164,5.086999893188477 3.51200008392334,5.324999809265137 C3.3469998836517334,5.441999912261963 3.1549999713897705,5.5 2.9619998931884766,5.5 C2.760999917984009,5.5 2.559999942779541,5.435999870300293 2.3910000324249268,5.309999942779541 C2.3910000324249268,5.309999942779541 0,3.5199999809265137 0,3.5199999809265137 C0,3.5199999809265137 -2.3910000324249268,5.309999942779541 -2.3910000324249268,5.309999942779541 C-2.7209999561309814,5.558000087738037 -3.1740000247955322,5.564000129699707 -3.510999917984009,5.324999809265137 C-3.8480000495910645,5.086999893188477 -3.993000030517578,4.6579999923706055 -3.869999885559082,4.263999938964844 C-3.869999885559082,4.263999938964844 -3.01200008392334,1.5169999599456787 -3.01200008392334,1.5169999599456787 C-3.01200008392334,1.5169999599456787 -5.546000003814697,-0.4050000011920929 -5.546000003814697,-0.4050000011920929 C-5.870999813079834,-0.6520000100135803 -6.002999782562256,-1.0800000429153442 -5.873000144958496,-1.4670000076293945 C-5.742000102996826,-1.8539999723434448 -5.379000186920166,-2.115000009536743 -4.9710001945495605,-2.115000009536743 C-4.9710001945495605,-2.115000009536743 -1.843000054359436,-2.115000009536743 -1.843000054359436,-2.115000009536743 C-1.843000054359436,-2.115000009536743 -0.9010000228881836,-4.85699987411499 -0.9010000228881836,-4.85699987411499 C-0.7670000195503235,-5.242000102996826 -0.4059999883174896,-5.5 0.0010000000474974513,-5.5 C0.40799999237060547,-5.5 0.7689999938011169,-5.242000102996826 0.9010000228881836,-4.857999801635742 C0.9010000228881836,-4.857999801635742 1.843000054359436,-2.115999937057495 1.843000054359436,-2.115999937057495 C1.843000054359436,-2.115999937057495 4.9710001945495605,-2.115999937057495 4.9710001945495605,-2.115999937057495 C5.380000114440918,-2.115999937057495 5.743000030517578,-1.8550000190734863 5.873000144958496,-1.468000054359436 C6.004000186920166,-1.0800000429153442 5.873000144958496,-0.6520000100135803 5.546999931335449,-0.4050000011920929z"/></g></g><g transform="matrix(4,0,0,4,122,153)" opacity="1" style="display: block;"><g opacity="1" transform="matrix(1,0,0,1,0,0)"><path stroke-linecap="round" stroke-linejoin="round" fill-opacity="0" stroke="rgb(0,0,0)" stroke-opacity="1" stroke-width="3" d=" M-11.604999542236328,0 C-4.264999866485596,0 14.5,0 14.5,0"/></g></g><g transform="matrix(4,0,0,4,122,98)" opacity="1" style="display: block;"><g opacity="1" transform="matrix(1,0,0,1,0,0)"><path stroke-linecap="round" stroke-linejoin="round" fill-opacity="0" stroke="rgb(0,0,0)" stroke-opacity="1" stroke-width="3" d=" M-11.604999542236328,0 C-4.264999866485596,0 14.5,0 14.5,0"/></g></g><g transform="matrix(4,0,0,4,122,43)" opacity="1" style="display: block;"><g opacity="1" transform="matrix(1,0,0,1,0,0)"><path stroke-linecap="round" stroke-linejoin="round" fill-opacity="0" stroke="rgb(0,0,0)" stroke-opacity="1" stroke-width="3" d=" M-11.604999542236328,0 C-4.264999866485596,0 14.5,0 14.5,0"/></g></g><g style="display: none;"><g><path stroke-linecap="round" stroke-linejoin="round" fill-opacity="0"/></g></g><g style="display: none;"><g><path stroke-linecap="round" stroke-linejoin="round" fill-opacity="0"/></g></g><g style="display: none;"><g><path stroke-linecap="round" stroke-linejoin="round" fill-opacity="0"/></g></g></g></svg>