<svg width="74" height="26" viewBox="0 0 74 26" fill="none" xmlns="http://www.w3.org/2000/svg" id="svg616576489_8302">
<g clip-path="url(#svg616576489_8302_clip0_56_19826)">
<path d="M11.4008 25.9669C8.43744 25.7034 5.84387 24.5295 3.87364 22.56C2.01309 20.7002 0.871452 18.3396 0.483474 15.5501C0.388124 14.8646 0.366882 13.254 0.443651 12.5309C0.69277 10.1843 1.54713 8.08743 2.99014 6.28118C3.37902 5.79439 4.18708 4.96903 4.65233 4.58336C7.11854 2.53905 10.2315 1.54315 13.601 1.72051C15.1907 1.80419 16.2821 1.99937 17.5035 2.4184C18.3511 2.7092 19.5694 3.32444 19.9452 3.65151L20.0401 3.73414L20.0294 4.65856L20.0186 5.58298L19.6164 5.33546C17.7715 4.19995 15.4312 3.59897 12.8603 3.60049C10.6813 3.60178 8.67014 4.18557 6.95785 5.31383C5.19607 6.4747 3.86862 8.11347 3.0915 10.0869C2.03947 12.7585 2.20225 16.0231 3.5189 18.6583C5.01985 21.6624 7.78501 23.5952 11.2157 24.0383C12.2251 24.1686 13.7139 24.1093 14.7713 23.8965C18.2316 23.2003 20.403 20.8338 20.8655 17.2545C20.9138 16.8811 20.9308 16.4311 20.9338 15.4544L20.9378 14.1521L16.8492 14.1424L12.7605 14.1326V12.2945H22.7572L22.7568 13.951C22.7564 15.8189 22.7157 16.7964 22.6055 17.5783C22.273 19.9392 21.3938 21.8186 19.9433 23.2691C18.4732 24.7392 16.5919 25.6016 14.1777 25.9121C13.6142 25.9845 11.9654 26.0171 11.4008 25.9669ZM58.0327 4.02609V-0.000244141H59.9095V6.80576L59.7473 6.87861C59.4119 7.02921 58.9363 7.35359 58.0806 8.01539C58.0424 8.04496 58.0327 7.24136 58.0327 4.02609ZM55.1984 5.48451V-0.000244141H57.0752V8.77922L56.7819 9.09098C56.4815 9.41029 55.9414 10.0451 55.5065 10.5901C55.3721 10.7586 55.2477 10.9129 55.2302 10.9329C55.2127 10.9529 55.1984 8.50112 55.1984 5.48451Z" fill="white"/>
<path d="M11.8987 23.1104C9.54196 22.9251 7.55741 22.0154 5.99507 20.4044C5.53622 19.9312 5.27172 19.6026 4.91905 19.0675C3.6122 17.0846 3.10401 14.4949 3.54921 12.0868C4.11999 8.99945 6.25074 6.43648 9.23515 5.2475C9.99406 4.94515 10.9305 4.72214 11.8203 4.63185C12.3977 4.57326 13.9483 4.60604 14.5607 4.68978C16.5322 4.95942 18.2922 5.56852 19.7024 6.46922L20.0374 6.68315L20.0376 7.59146C20.0377 8.41925 20.0318 8.50297 19.9704 8.53583C19.9177 8.56405 19.7989 8.50594 19.4246 8.26864C17.9475 7.33236 16.3749 6.78542 14.5224 6.56364C13.8164 6.47912 12.2911 6.46826 11.7647 6.54399C8.3794 7.031 5.9679 9.46614 5.53916 12.8305C5.42246 13.7463 5.50184 15.0376 5.72987 15.9329C6.23913 17.9323 7.46978 19.5582 9.11738 20.4083C10.2354 20.9852 11.2184 21.2185 12.5307 21.2185C14.3681 21.2185 15.846 20.696 16.8597 19.6881C17.5168 19.0347 17.9007 18.2424 17.9881 17.3597L18.0156 17.082H12.7605V15.1286H19.9612V15.9097C19.9612 17.1146 19.8649 17.8306 19.5942 18.6397C19.0457 20.2792 17.8825 21.5807 16.2842 22.3435C15.2447 22.8395 14.1384 23.0808 12.7661 23.1107C12.3944 23.1188 12.004 23.1187 11.8987 23.1103V23.1104ZM64.0343 23.1313C62.5452 22.9991 61.2343 22.3423 60.1152 21.1676C59.3129 20.3255 58.7444 19.3207 58.497 18.3076C58.3537 17.7207 58.3086 17.8353 59.1265 16.7078C59.5255 16.1576 59.8633 15.7065 59.8771 15.7053C59.8908 15.7041 59.9133 15.8884 59.927 16.1149C59.9616 16.6879 60.0132 17.0387 60.1283 17.4841C60.6393 19.4619 62.0756 20.8911 63.8671 21.2044C64.3427 21.2875 65.1599 21.2573 65.6164 21.1396C67.2661 20.7144 68.3631 19.4675 68.7818 17.5416C68.8829 17.0765 68.8837 15.7103 68.783 15.2524C68.5779 14.3189 68.1775 13.5311 67.5985 12.9215C66.7711 12.0504 65.6856 11.6049 64.3907 11.6049C62.7288 11.6049 61.52 12.279 59.9255 14.0951C58.3666 15.8707 55.7776 19.1611 54.476 21.0211L54.0111 21.6855V18.5949L54.673 17.6948C55.0371 17.1997 55.6751 16.3552 56.0907 15.818C56.5064 15.2808 57.0832 14.5312 57.3724 14.1521C58.7016 12.4104 59.5591 11.5365 60.6487 10.8135C62.8962 9.32222 65.8538 9.28466 67.9987 10.7202C70.1875 12.1851 71.2394 15.0501 70.6525 17.9487C70.179 20.287 68.6815 22.0912 66.6098 22.8195C66.1616 22.977 65.6463 23.0833 65.099 23.131C64.5943 23.175 64.5273 23.175 64.034 23.1314L64.0343 23.1313ZM48.3425 20.6393C48.3425 16.4736 48.3343 15.7537 48.2831 15.4089C48.0956 14.1464 47.5127 13.0945 46.6356 12.4363C46.0669 12.0095 45.4291 11.7443 44.6715 11.6196C44.1287 11.5303 43.3179 11.5652 42.8079 11.6998C41.1049 12.1493 39.8804 13.5364 39.5106 15.435C39.4052 15.9767 39.4142 16.9987 39.5294 17.5416C39.9084 19.3286 41.0418 20.619 42.6356 21.0777C44.0383 21.4814 45.9714 21.1789 47.1653 20.3688L47.3862 20.2189L47.376 21.2062L47.3658 22.1934L46.9828 22.3937C46.0138 22.9004 44.4949 23.2238 43.4207 23.152C41.3644 23.0147 39.7095 22.0811 38.6083 20.4374C37.436 18.6875 37.1363 16.148 37.8494 14.0061C38.7913 11.1767 41.4326 9.44847 44.4453 9.69033C46.0789 9.82148 47.3058 10.3695 48.3822 11.4489C49.3773 12.4467 49.911 13.5241 50.167 15.052C50.2284 15.4184 50.2355 15.8992 50.2477 20.4621L50.261 25.47H48.3425V20.6393ZM26.856 20.5195C26.8565 15.4422 26.8726 14.7618 27.0075 14.0996C27.3541 12.3989 28.363 11.0462 29.8378 10.3047C30.1869 10.1292 30.9125 9.89755 31.3367 9.82625C32.6151 9.61133 33.9439 9.80564 34.8875 10.3455L35.087 10.4596L34.9291 10.7163C34.8422 10.8574 34.6521 11.2185 34.5067 11.5187C34.3613 11.8189 34.2391 12.0645 34.2353 12.0645C34.2315 12.0645 34.0647 12.0061 33.8645 11.9347C33.0083 11.6292 32.2257 11.5797 31.4256 11.7804C30.6764 11.9682 29.9939 12.4108 29.552 12.9952C29.3055 13.3213 29.0205 13.9226 28.8949 14.3817L28.79 14.7647L28.7792 20.1173L28.7684 25.47H26.8554L26.856 20.5195Z" fill="white"/>
<path d="M24.0594 20.194C24.0595 14.9215 24.0685 14.4952 24.1974 13.7115C24.5944 11.2959 25.8586 9.32483 27.7455 8.17928C29.5392 7.09031 31.9189 6.71772 34.2092 7.16722C35.025 7.32732 36.039 7.72182 36.6642 8.1223L36.9167 8.2841L36.4686 8.72843C36.2222 8.97282 35.9428 9.26466 35.8477 9.37697L35.6749 9.58116L35.4495 9.46752C34.6969 9.08793 33.4236 8.80891 32.4439 8.80891C29.3627 8.80891 26.9596 10.5978 26.2068 13.452C25.9482 14.4325 25.9602 14.1284 25.946 20.0791L25.9332 25.47H24.0594L24.0594 20.194ZM63.7396 25.9825C60.8645 25.7205 58.4828 24.3405 57.0192 22.0887C56.7883 21.7334 56.3869 20.9256 56.3077 20.6569L56.2607 20.4974L56.9265 19.5918L57.5922 18.6862L57.626 18.8129C58.0568 20.4317 59.0018 21.8087 60.3338 22.759C60.748 23.0545 61.5007 23.4543 61.9993 23.6437C63.2509 24.1191 64.638 24.2335 65.9889 23.9728C66.8678 23.8032 67.9114 23.3565 68.6422 22.8373C69.0916 22.5179 69.925 21.6908 70.2282 21.2632C70.9696 20.2177 71.4576 18.9749 71.654 17.6317C71.7441 17.0162 71.7449 15.7741 71.6556 15.1647C71.3441 13.0381 70.3761 11.327 68.8145 10.1428C67.5003 9.14615 65.6489 8.629 63.8827 8.76523C61.2084 8.9715 59.3657 10.1878 56.7148 13.4965C56.4429 13.8359 55.7295 14.7686 55.1295 15.5691C54.5296 16.3696 54.0325 17.0317 54.0249 17.0405C54.0173 17.0493 54.0111 16.4284 54.0111 15.6608V14.2652L54.6533 13.3659C56.0146 11.4598 56.6037 10.7315 57.5335 9.80474C58.5018 8.83964 59.2766 8.26798 60.3116 7.75507C61.1813 7.3241 62.0172 7.06496 63.0502 6.90612C63.67 6.81082 65.1881 6.81082 65.8079 6.90612C67.9192 7.23078 69.5993 8.08655 71.0169 9.55938C72.4051 11.0018 73.2364 12.7912 73.5506 15.0137C73.6196 15.5018 73.6198 17.2813 73.551 17.7714C73.3276 19.3609 72.8122 20.787 72.0353 21.9654C70.5934 24.1526 68.4929 25.5043 65.9037 25.911C65.5334 25.9692 64.1098 26.0162 63.7397 25.9825H63.7396ZM42.942 25.9625C38.7913 25.5824 35.587 22.6649 34.7874 18.5375C34.6359 17.7559 34.6114 17.4624 34.6114 16.4309C34.6114 15.1675 34.6966 14.5151 34.9964 13.481C35.7815 10.7738 37.7757 8.52997 40.3183 7.49299C41.5328 6.99767 42.5872 6.79839 43.9761 6.80168C45.3231 6.80486 46.3155 6.97943 47.4424 7.41146C48.645 7.87253 49.6164 8.51306 50.5287 9.44661C51.8557 10.8045 52.6458 12.4388 52.9876 14.5324C53.0677 15.0228 53.0696 15.1379 53.0821 20.2514L53.0949 25.47H51.1768L51.1764 20.6728C51.176 17.6943 51.161 15.7013 51.1364 15.4159C50.9732 13.5222 50.2014 11.8527 48.9353 10.6544C47.5148 9.31008 45.4337 8.60086 43.392 8.76531C39.8843 9.04785 37.2774 11.453 36.6609 14.9754C36.4889 15.9585 36.519 17.2696 36.7387 18.3567C36.8971 19.1408 37.2979 20.1732 37.6932 20.8154C38.5197 22.1582 39.7366 23.1386 41.2307 23.6654C42.5105 24.1166 43.9759 24.2308 45.2235 23.9764C45.9362 23.8311 46.7845 23.5047 47.2098 23.2121L47.3849 23.0916V24.994L47.1647 25.1392C46.5378 25.5526 45.6161 25.8553 44.6464 25.9662C44.2459 26.012 43.4638 26.0102 42.942 25.9625Z" fill="white"/>
</g>
<defs>
<clipPath id="svg616576489_8302_clip0_56_19826">
<rect width="73.206" height="26" fill="white" transform="translate(0.397003)"/>
</clipPath>
</defs>
</svg>