<svg xmlns="http://www.w3.org/2000/svg" viewBox="0 0 48 48" width="48" height="48" preserveAspectRatio="xMidYMid slice" style="width: 100%; height: 100%; transform: translate3d(0px, 0px, 0px);"><defs><clipPath id="__lottie_element_52"><rect width="48" height="48" x="0" y="0"/></clipPath></defs><g clip-path="url(#__lottie_element_52)"><g style="display: none;"><g><path/></g></g><g style="display: none;"><g><path stroke-linecap="round" stroke-linejoin="round" fill-opacity="0"/></g><g><path stroke-linecap="round" stroke-linejoin="round" fill-opacity="0"/></g></g><g style="display: none;"><g><path stroke-linecap="round" stroke-linejoin="round" fill-opacity="0"/></g></g><g style="display: none;"><g><path stroke-linecap="round" stroke-linejoin="round" fill-opacity="0"/></g></g><g transform="matrix(1,0,0,1,0,0)" opacity="1" style="display: block;"><g opacity="1" transform="matrix(1,0,0,1,23.93199920654297,24)"><path fill="rgb(0,0,0)" fill-opacity="1" d=" M1.4429999589920044,8.25 C1.4429999589920044,8.25 1.4429999589920044,9.625 1.4429999589920044,9.625 C1.4429999589920044,10.383999824523926 0.828000009059906,11 0.06800000369548798,11 C-0.6919999718666077,11 -1.3070000410079956,10.383999824523926 -1.3070000410079956,9.625 C-1.3070000410079956,9.625 -1.3070000410079956,8.244999885559082 -1.3070000410079956,8.244999885559082 C-3.0169999599456787,8.232000350952148 -4.581999778747559,7.60699987411499 -5.7170000076293945,6.4720001220703125 C-6.254000186920166,5.934999942779541 -6.254000186920166,5.065000057220459 -5.7170000076293945,4.5279998779296875 C-5.179999828338623,3.990999937057495 -4.309999942779541,3.990999937057495 -3.7730000019073486,4.5279998779296875 C-3.3299999237060547,4.9710001945495605 -2.5320000648498535,5.5 -1.2549999952316284,5.5 C-1.2549999952316284,5.5 1.4429999589920044,5.5 1.4429999589920044,5.5 C2.5799999237060547,5.5 3.505000114440918,4.574999809265137 3.505000114440918,3.437999963760376 C3.505000114440918,2.3010001182556152 2.5799999237060547,1.3760000467300415 1.4429999589920044,1.3760000467300415 C1.4429999589920044,1.3760000467300415 -0.9629999995231628,1.3760000467300415 -0.9629999995231628,1.3760000467300415 C-3.615999937057495,1.3760000467300415 -5.775000095367432,-0.7829999923706055 -5.775000095367432,-3.436000108718872 C-5.775000095367432,-5.9720001220703125 -3.796999931335449,-8.034000396728516 -1.305999994277954,-8.21399974822998 C-1.305999994277954,-8.21399974822998 -1.305999994277954,-9.62399959564209 -1.305999994277954,-9.62399959564209 C-1.3070000410079956,-10.383999824523926 -0.6919999718666077,-11 0.06800000369548798,-11 C0.828000009059906,-11 1.4429999589920044,-10.383999824523926 1.4429999589920044,-9.625 C1.4429999589920044,-9.625 1.4429999589920044,-8.229999542236328 1.4429999589920044,-8.229999542236328 C3.565000057220459,-8.121999740600586 4.920000076293945,-6.9079999923706055 5.3480000495910645,-6.245999813079834 C5.760000228881836,-5.607999801635742 5.576000213623047,-4.756999969482422 4.938000202178955,-4.34499979019165 C4.298999786376953,-3.936000108718872 3.447999954223633,-4.117000102996826 3.0380001068115234,-4.755000114440918 C3.0380001068115234,-4.755000114440918 3.0380001068115234,-4.754000186920166 3.0380001068115234,-4.754000186920166 C3.0339999198913574,-4.754000186920166 2.443000078201294,-5.5 1.1510000228881836,-5.5 C1.1510000228881836,-5.5 -0.9639999866485596,-5.5 -0.9639999866485596,-5.5 C-2.1010000705718994,-5.5 -3.0260000228881836,-4.574999809265137 -3.0260000228881836,-3.437999963760376 C-3.0260000228881836,-2.3010001182556152 -2.1010000705718994,-1.3760000467300415 -0.9639999866485596,-1.3760000467300415 C-0.9639999866485596,-1.3760000467300415 1.4420000314712524,-1.3760000467300415 1.4420000314712524,-1.3760000467300415 C4.09499979019165,-1.3760000467300415 6.254000186920166,0.7829999923706055 6.254000186920166,3.436000108718872 C6.254000186920166,6.089000225067139 4.0960001945495605,8.25 1.4429999589920044,8.25z"/></g></g><g transform="matrix(1,0,0,1,0,0)" opacity="1" style="display: block;"><g opacity="1" transform="matrix(1,0,0,1,0,0)"><path stroke-linecap="round" stroke-linejoin="round" fill-opacity="0" stroke="rgb(0,0,0)" stroke-opacity="1" stroke-width="3" d=" M23.992000579833984,8.5 C23.992000579833984,8.5 23.98900032043457,8.5 23.98900032043457,8.5"/></g><g opacity="1" transform="matrix(1,0,0,1,0,0)"><path stroke-linecap="round" stroke-linejoin="round" fill-opacity="0" stroke="rgb(0,0,0)" stroke-opacity="1" stroke-width="3" d=" M23.98900032043457,39.5 C23.98900032043457,39.5 23.992000579833984,39.5 23.992000579833984,39.5"/></g></g><g transform="matrix(1,0,0,1,0,0)" opacity="1" style="display: block;"><g opacity="1" transform="matrix(1,0,0,1,31.75,24)"><path stroke-linecap="round" stroke-linejoin="round" fill-opacity="0" stroke="rgb(0,0,0)" stroke-opacity="1" stroke-width="3" d=" M-7.75,-15.5 C0.8109999895095825,-15.5 7.75,-8.560999870300293 7.75,0 C7.75,8.560999870300293 0.8109999895095825,15.5 -7.75,15.5"/></g></g><g transform="matrix(1,0,0,1,0,0)" opacity="1" style="display: block;"><g opacity="1" transform="matrix(1,0,0,1,24,24)"><path stroke-linecap="round" stroke-linejoin="round" fill-opacity="0" stroke="rgb(0,0,0)" stroke-opacity="1" stroke-width="3" d=" M0,-15.5 C8.560999870300293,-15.5 15.5,-8.560999870300293 15.5,0 C15.5,8.560999870300293 8.560999870300293,15.5 0,15.5 C-8.560999870300293,15.5 -15.5,8.560999870300293 -15.5,0 C-15.5,-8.560999870300293 -8.560999870300293,-15.5 0,-15.5z"/></g></g></g></svg>