<svg xmlns="http://www.w3.org/2000/svg" viewBox="0 0 48 48" width="48" height="48" preserveAspectRatio="xMidYMid slice" style="width: 100%; height: 100%; transform: translate3d(0px, 0px, 0px);"><defs><clipPath id="__lottie_element_86"><rect width="48" height="48" x="0" y="0"/></clipPath></defs><g clip-path="url(#__lottie_element_86)"><g transform="matrix(1,0,0,1,0,0)" opacity="1" style="display: block;"><g opacity="1" transform="matrix(1,0,0,1,23.976999282836914,30.5)"><path stroke-linecap="butt" stroke-linejoin="round" fill-opacity="0" stroke="rgb(0,0,0)" stroke-opacity="1" stroke-width="3" d=" M4.784999847412109,13 C4.784999847412109,13 -4.823999881744385,13 -4.823999881744385,13 C-5.949999809265137,13 -6.991000175476074,12.378000259399414 -7.493000030517578,11.369000434875488 C-8.86400032043457,8.611000061035156 -11.229999542236328,2.0139999389648438 -11.458000183105469,-10.95300006866455 C-11.47700023651123,-12.072999954223633 -10.57699966430664,-13 -9.456000328063965,-13 C-9.456000328063965,-13 9.456000328063965,-13 9.456000328063965,-13 C10.57699966430664,-13 11.47700023651123,-12.072999954223633 11.458000183105469,-10.95199966430664 C11.227999687194824,2.0320000648498535 8.831999778747559,8.630000114440918 7.448999881744385,11.380000114440918 C6.943999767303467,12.383000373840332 5.906000137329102,13 4.784999847412109,13z"/></g><g opacity="1" transform="matrix(1,0,0,1,37.94300079345703,30)"><path stroke-linecap="butt" stroke-linejoin="round" fill-opacity="0" stroke="rgb(0,0,0)" stroke-opacity="1" stroke-width="3" d=" M-2.9140000343322754,-3 C-2.9140000343322754,-4.933000087738037 -0.8759999871253967,-6.5 1.0570000410079956,-6.5 C2.989000082015991,-6.5 4.557000160217285,-4.933000087738037 4.557000160217285,-3 C4.557000160217285,2.5 -3.5160000324249268,1.6080000400543213 -4.557000160217285,6.5"/></g></g><g transform="matrix(0.9905684590339661,-0.13701863586902618,0.13701863586902618,0.9905684590339661,-2.2635574340820312,3.115668296813965)" opacity="1" style="display: block;"><g opacity="1" transform="matrix(1,0,0,1,0,0)"><path stroke-linecap="butt" stroke-linejoin="miter" fill-opacity="0" stroke-miterlimit="10" stroke="rgb(0,0,0)" stroke-opacity="1" stroke-width="3" d=" M21.5,18 C21.5,18 21.5,28 21.5,28"/></g><g opacity="1" transform="matrix(1,0,0,1,21.5,30.5)"><path fill="rgb(0,0,0)" fill-opacity="1" d=" M1.5,3.5 C1.5,3.5 -1.5,3.5 -1.5,3.5 C-2.6050000190734863,3.5 -3.5,2.6050000190734863 -3.5,1.5 C-3.5,1.5 -3.5,-1.5 -3.5,-1.5 C-3.5,-2.6050000190734863 -2.6050000190734863,-3.5 -1.5,-3.5 C-1.5,-3.5 1.5,-3.5 1.5,-3.5 C2.6050000190734863,-3.5 3.5,-2.6050000190734863 3.5,-1.5 C3.5,-1.5 3.5,1.5 3.5,1.5 C3.5,2.6050000190734863 2.6050000190734863,3.5 1.5,3.5z"/></g></g><g class="2" style="display: block;" transform="matrix(1,0,0,1,0,0.2308788299560547)" opacity="1"><g opacity="1" transform="matrix(1,0,0,1,22.999000549316406,8)"><path stroke-linecap="round" stroke-linejoin="round" fill-opacity="0" stroke="rgb(0,0,0)" stroke-opacity="1" stroke-width="3" d=" M2.4600000381469727,-3.75600004196167 C1.9859999418258667,0.41100001335144043 -2.5,-0.23600000143051147 -2.5,4.5"/></g></g><g class="2" style="display: block;" transform="matrix(1,0,0,1,0,0.7799339294433594)" opacity="1"><g opacity="1" transform="matrix(1,0,0,1,29.499000549316406,9)"><path stroke-linecap="round" stroke-linejoin="round" fill-opacity="0" stroke="rgb(0,0,0)" stroke-opacity="1" stroke-width="3" d=" M0.035999998450279236,-0.027000000700354576 C-0.9760000109672546,0.7319999933242798 -2,1.4759999513626099 -2,3.5"/></g></g><g transform="matrix(1,0,0,1,0,-1)" opacity="1" style="display: none;"><g opacity="1" transform="matrix(1,0,0,1,22.999000549316406,8)"><path stroke-linecap="round" stroke-linejoin="round" fill-opacity="0" stroke="rgb(0,0,0)" stroke-opacity="1" stroke-width="3" d="M0 0"/></g></g><g transform="matrix(1,0,0,1,0,-0.9982891082763672)" opacity="1" style="display: none;"><g opacity="1" transform="matrix(1,0,0,1,29.499000549316406,9)"><path stroke-linecap="round" stroke-linejoin="round" fill-opacity="0" stroke="rgb(0,0,0)" stroke-opacity="1" stroke-width="3" d=" M2,-3.5 C2,-3.5 2,-3.5 2,-3.5"/></g></g></g></svg>