<svg xmlns="http://www.w3.org/2000/svg" viewBox="0 0 48 48" width="48" height="48" preserveAspectRatio="xMidYMid slice" style="width: 100%; height: 100%; transform: translate3d(0px, 0px, 0px);"><defs><clipPath id="__lottie_element_40"><rect width="48" height="48" x="0" y="0"/></clipPath><filter id="__lottie_element_45" filterUnits="objectBoundingBox" x="0%" y="0%" width="100%" height="100%"><feComponentTransfer in="SourceGraphic"><feFuncA type="table" tableValues="1.0 0.0"/></feComponentTransfer></filter><mask id="__lottie_element_44" mask-type="alpha"><g filter="url(#__lottie_element_45)"><rect width="48" height="48" x="0" y="0" fill="#ffffff" opacity="0"/><g transform="matrix(1,0,0,1,0,0)" opacity="1" style="display: block;"><g opacity="1" transform="matrix(1,0,0,1,25.00200080871582,25)"><path fill="rgb(0,0,0)" fill-opacity="1" d=" M20.49799919128418,-12 C20.49799919128418,-9.729999542236328 19.607999801635742,-7.590000152587891 18.007999420166016,-5.989999771118164 C18.007999420166016,-5.989999771118164 -4.122000217437744,16.139999389648438 -4.122000217437744,16.139999389648438 C-4.7220001220703125,16.739999771118164 -5.4720001220703125,17.18000030517578 -6.2820000648498535,17.420000076293945 C-6.2820000648498535,17.420000076293945 -16.68199920654297,20.3799991607666 -16.68199920654297,20.3799991607666 C-16.941999435424805,20.459999084472656 -17.222000122070312,20.5 -17.50200080871582,20.5 C-18.302000045776367,20.5 -19.052000045776367,20.190000534057617 -19.621999740600586,19.6200008392334 C-20.392000198364258,18.850000381469727 -20.68199920654297,17.719999313354492 -20.381999969482422,16.68000030517578 C-20.381999969482422,16.68000030517578 -18.07200050354004,8.569999694824219 -18.07200050354004,8.569999694824219 C-18.07200050354004,8.569999694824219 10.928000450134277,-20.43000030517578 10.928000450134277,-20.43000030517578 C11.277999877929688,-20.479999542236328 11.637999534606934,-20.5 11.998000144958496,-20.5 C14.267999649047852,-20.5 16.408000946044922,-19.6200008392334 18.007999420166016,-18.010000228881836 C19.607999801635742,-16.40999984741211 20.49799919128418,-14.270000457763672 20.49799919128418,-12z"/></g></g></g></mask></defs><g clip-path="url(#__lottie_element_40)"><g mask="url(#__lottie_element_44)" style="display: block;"><g transform="matrix(1,0,0,1,0,0)" opacity="1"><g opacity="1" transform="matrix(1,0,0,1,24.086000442504883,24.086000442504883)"><path stroke-linecap="butt" stroke-linejoin="round" fill-opacity="0" stroke="rgb(0,0,0)" stroke-opacity="1" stroke-width="3" d=" M17,9 C17.7810001373291,9.781000137329102 17.7810001373291,11.04699993133545 17,11.82800006866455 C17,11.82800006866455 11.82800006866455,17 11.82800006866455,17 C11.04699993133545,17.7810001373291 9.781000137329102,17.7810001373291 9,17 C9,17 -17,-9 -17,-9 C-17.7810001373291,-9.781000137329102 -17.7810001373291,-11.04699993133545 -17,-11.82800006866455 C-17,-11.82800006866455 -11.82800006866455,-17 -11.82800006866455,-17 C-11.04699993133545,-17.7810001373291 -9.781000137329102,-17.7810001373291 -9,-17 C-9,-17 17,9 17,9z"/></g><g opacity="1" transform="matrix(1,0,0,1,16.25,9.75)"><path stroke-linecap="round" stroke-linejoin="round" fill-opacity="0" stroke="rgb(0,0,0)" stroke-opacity="1" stroke-width="3" d=" M-0.75,0.75 C-0.75,0.75 0.75,-0.75 0.75,-0.75"/></g><g opacity="1" transform="matrix(1,0,0,1,20.25,13.75)"><path stroke-linecap="round" stroke-linejoin="round" fill-opacity="0" stroke="rgb(0,0,0)" stroke-opacity="1" stroke-width="3" d=" M-0.75,0.75 C-0.75,0.75 0.75,-0.75 0.75,-0.75"/></g><g opacity="1" transform="matrix(1,0,0,1,24.25,17.75)"><path stroke-linecap="round" stroke-linejoin="round" fill-opacity="0" stroke="rgb(0,0,0)" stroke-opacity="1" stroke-width="3" d=" M-0.75,0.75 C-0.75,0.75 0.75,-0.75 0.75,-0.75"/></g><g opacity="1" transform="matrix(1,0,0,1,30.25,23.75)"><path stroke-linecap="round" stroke-linejoin="round" fill-opacity="0" stroke="rgb(0,0,0)" stroke-opacity="1" stroke-width="3" d=" M-0.75,0.75 C-0.75,0.75 0.75,-0.75 0.75,-0.75"/></g><g opacity="1" transform="matrix(1,0,0,1,34.25,27.75)"><path stroke-linecap="round" stroke-linejoin="round" fill-opacity="0" stroke="rgb(0,0,0)" stroke-opacity="1" stroke-width="3" d=" M-0.75,0.75 C-0.75,0.75 0.75,-0.75 0.75,-0.75"/></g><g opacity="1" transform="matrix(1,0,0,1,38.25,31.75)"><path stroke-linecap="round" stroke-linejoin="round" fill-opacity="0" stroke="rgb(0,0,0)" stroke-opacity="1" stroke-width="3" d=" M-0.75,0.75 C-0.75,0.75 0.75,-0.75 0.75,-0.75"/></g></g></g><g transform="matrix(1,0,0,1,0,0)" opacity="1" style="display: block;"><g opacity="1" transform="matrix(1,0,0,1,24.26799964904785,23.73200035095215)"><path stroke-linecap="butt" stroke-linejoin="round" fill-opacity="0" stroke="rgb(0,0,0)" stroke-opacity="1" stroke-width="3" d=" M-17.76799964904785,17.76799964904785 C-17.76799964904785,17.76799964904785 -14.800000190734863,7.376999855041504 -14.800000190734863,7.376999855041504 C-14.706999778747559,7.050000190734863 -14.531999588012695,6.752999782562256 -14.291000366210938,6.51200008392334 C-14.291000366210938,6.51200008392334 7.8429999351501465,-15.621000289916992 7.8429999351501465,-15.621000289916992 C9.98900032043457,-17.76799964904785 13.473999977111816,-17.76799964904785 15.619999885559082,-15.621000289916992 C17.76799964904785,-13.472999572753906 17.76799964904785,-9.991000175476074 15.619999885559082,-7.8429999351501465 C15.619999885559082,-7.8429999351501465 -6.513000011444092,14.291000366210938 -6.513000011444092,14.291000366210938 C-6.752999782562256,14.531000137329102 -7.051000118255615,14.706000328063965 -7.377999782562256,14.800000190734863 C-7.377999782562256,14.800000190734863 -17.76799964904785,17.76799964904785 -17.76799964904785,17.76799964904785z"/></g><g opacity="1" transform="matrix(1,0,0,1,33,15)"><path stroke-linecap="round" stroke-linejoin="round" fill-opacity="0" stroke="rgb(0,0,0)" stroke-opacity="1" stroke-width="3" d=" M-3.5,-3.5 C-3.5,-3.5 3.5,3.5 3.5,3.5"/></g></g></g></svg>