<svg width="30" height="36" viewBox="0 0 30 36" fill="none" xmlns="http://www.w3.org/2000/svg" id="svg-946912036_1291">
<path fill-rule="evenodd" clip-rule="evenodd" d="M22.0558 0.278442C22.2836 2.35363 21.4505 4.43927 20.2127 5.93746C18.9749 7.43661 16.9438 8.60099 14.9548 8.44709C14.6841 6.41301 15.688 4.29066 16.8354 2.96467C18.1145 1.46729 20.272 0.350147 22.0558 0.278442ZM29.422 26.2765C29.2075 26.1896 24.7218 24.3728 24.6726 19.1082C24.6336 14.7169 28.1834 12.5587 28.4883 12.3735C28.4946 12.3696 28.5 12.3665 28.5032 12.3644C26.4206 9.31547 23.1766 8.89677 22.0207 8.84865C20.332 8.67752 18.694 9.32374 17.3564 9.8514C16.507 10.1864 15.7792 10.4736 15.2356 10.4736C14.6295 10.4736 13.8807 10.1767 13.0407 9.84344C11.9409 9.40712 10.6844 8.9087 9.38646 8.93343C6.37649 8.97719 3.60364 10.6826 2.05225 13.3757C-1.07082 18.7988 1.2551 26.8328 4.29861 31.2332C5.78839 33.3844 7.56363 35.8074 9.89501 35.7192C10.9379 35.6782 11.6796 35.3623 12.4464 35.0357C13.3309 34.659 14.2489 34.2681 15.702 34.2681C17.0896 34.2681 17.9671 34.6478 18.811 35.0129C19.6168 35.3615 20.3921 35.6968 21.5511 35.6754C23.9668 35.6309 25.4994 33.4797 26.9767 31.3206C28.6311 28.9034 29.344 26.5608 29.4235 26.2987C29.4267 26.29 29.4282 26.2836 29.4298 26.2796C29.429 26.2792 29.4267 26.2781 29.422 26.2765Z" fill="white"/>
</svg>