<svg width="116" height="26" viewBox="0 0 116 26" fill="none" xmlns="http://www.w3.org/2000/svg" id="svg-1260850827_2008">
<g clip-path="url(#svg-1260850827_2008_clip0_56_19814)">
<path d="M58.1235 6.5C53.6385 6.5 50.4046 9.425 50.4046 13.8125C50.4046 18.2 54.0407 21.125 58.5299 21.125C61.2393 21.125 63.6282 20.0525 65.1068 18.2447L61.9991 16.4491C61.1785 17.3469 59.9313 17.8709 58.5299 17.8709C56.5838 17.8709 54.9304 16.8553 54.3168 15.2303H65.7002C65.7893 14.7753 65.8424 14.3041 65.8424 13.8084C65.8424 9.425 62.6127 6.5 58.1235 6.5ZM54.2843 12.3906C54.7921 10.7697 56.1816 9.75 58.1235 9.75C60.0693 9.75 61.4588 10.7697 61.9627 12.3906H54.2843ZM53.3663 2.03125L42.1091 21.5312L30.8479 2.03125H35.0688L42.1052 14.2188L49.1413 2.03125H53.3663ZM15.3169 0L30.3279 26H0.306L15.3169 0ZM82.1735 13.8125C82.1735 16.25 83.766 17.875 86.236 17.875C87.9099 17.875 89.1652 17.1153 89.811 15.8763L92.931 17.6759C91.6391 19.8291 89.2179 21.125 86.236 21.125C81.7468 21.125 78.5174 18.2 78.5174 13.8125C78.5174 9.425 81.751 6.5 86.236 6.5C89.2179 6.5 91.6352 7.79594 92.931 9.94906L89.811 11.7488C89.1652 10.5097 87.9099 9.75 86.236 9.75C83.7702 9.75 82.1735 11.375 82.1735 13.8125ZM115.681 2.03125V20.7188H112.025V2.03125H115.681ZM101.868 6.5C97.3835 6.5 94.1499 9.425 94.1499 13.8125C94.1499 18.2 97.7899 21.125 102.275 21.125C104.984 21.125 107.373 20.0525 108.852 18.2447L105.744 16.4491C104.924 17.3469 103.676 17.8709 102.275 17.8709C100.329 17.8709 98.6754 16.8553 98.0618 15.2303H109.445C109.534 14.7753 109.587 14.3041 109.587 13.8084C109.587 9.425 106.358 6.5 101.868 6.5ZM98.0293 12.3906C98.5374 10.7697 99.9227 9.75 101.868 9.75C103.814 9.75 105.204 10.7697 105.708 12.3906H98.0293ZM77.2985 6.90625V10.8428C76.8924 10.725 76.4616 10.6438 75.9985 10.6438C73.6382 10.6438 71.936 12.2688 71.936 14.7063V20.7188H68.2799V6.90625H71.936V10.6438C71.936 8.58 74.3368 6.90625 77.2985 6.90625Z" fill="white"/>
</g>
<defs>
<clipPath id="svg-1260850827_2008_clip0_56_19814">
<rect width="115.388" height="26" fill="white" transform="translate(0.306)"/>
</clipPath>
</defs>
</svg>